<svg xmlns="http://www.w3.org/2000/svg" xmlns:xlink="http://www.w3.org/1999/xlink" width="400" height="400" viewBox="0 0 400 400"><defs><linearGradient id="gradient-19"><stop stop-color="#905e25" offset="0"/><stop stop-color="#f5ec8b" offset="0.5"/><stop stop-color="#905e36" offset="1"/></linearGradient></defs><g data-name="icon" fill="url(#gradient-19)" data="id:7878481" transform="translate(-0.9465379553556623, -0.9739493758225493) scale(4.019431915464524)">
  
 <path d="m94.609 30.152-13.055-18.852c-0.24219-0.35156-0.67969-0.51172-1.0977-0.39062l-13.133 3.7305c-0.078125 0.023437-0.15625 0.054687-0.23047 0.097656l-23.152 13.453c-0.30859 0.17969-0.49609 0.50781-0.49609 0.86328l-0.011718 4.6211c-2.0312-1.1797-4.5938-2.6602-6.8594-3.9688l-3.7734-2.1797c-0.67188-0.38672-1.1562-0.66797-1.5234-0.84375l0.011718-0.019532c-3.0859-2.0859-7.3672-1.7773-11.75 0.83984-8.0664 4.8203-14.492 16.219-14.324 25.41 0.082031 4.5938 1.7695 8.0352 4.7461 9.6914l0.015624-0.03125c0.34766 0.24219 0.85938 0.53906 1.5742 0.95703l12.523 7.2891c1.2656 0.73438 2.6875 1.1016 4.2227 1.1016 1.4883 0 3.082-0.35547 4.7266-1.0391 0.17578-0.054687 0.35156-0.12109 0.52734-0.18359 4.25 5.1953 6.75 8.1133 7.7227 8.6133 1.0977 0.55859 5.6289 1.7461 6.6562 2.0117 0.85937 0.31641 6.5625 2.3945 8.6719 2.4688h0.0625c0.011719 0 0.019532-0.003907 0.027344-0.003907 0.29688-0.003906 0.66016-0.066406 1.043-0.30859l2.9453 1.2852 6.2891 2.3281c0.050781 0.019531 0.10156 0.03125 0.15234 0.042969 1.6797 0.33203 10.121 1.9805 11.312 1.9961h0.17578c1.5938 0 3.5117-0.27734 4.625-2.1641 0.47266-0.80078 0.62109-1.625 0.63672-2.2891 0.96484 0.10156 2.2344 0.22656 2.793 0.25 1.043 0.046874 3.2109 0.14062 4.7539-1.4023 1.1094-1.1055 1.1016-2.5742 0.94922-3.4961 0.67187-0.45312 1.5352-1.3164 1.793-2.8398 0.30078-1.7773-0.36719-3.2695-1.9844-4.4375-0.52734-0.38281-1.4688-0.78125-2.2734-1.082 0.11328-0.30469 0.20703-0.67578 0.26953-1.1172 0.20703-1.4648-0.44922-2.8164-1.8984-3.8984-1.8047-1.3516-4.9023-2.4492-5.5781-2.6797l-4.0898-2.668 15.617-9.0742c0.30859-0.17969 0.49609-0.50781 0.49609-0.86328l0.058594-20.645c0-0.20312-0.0625-0.40234-0.17969-0.57031zm-36.309-4.668 20.883-12.137 1.1367-0.32422 12.316 17.785-21.852 12.699-9.6992-14.008-2.7852-4.0195zm-0.92969 0.41797 3.4766 5.0195 9.2852 13.406-0.054687 19.047-9.5078-5.4883 0.015626-11.102-7.6445-4.4141-0.015625 11.102-7.5391-4.3516 0.054687-19.492 1.1484-0.66406zm10.621-9.375 7.293-2.0703-17.902 10.402-7.293 2.0703zm-46.594 44.656c0.050781 2.7891 0.70703 5.1289 1.8945 6.8672-4.7188-2.7461-12.27-7.1406-12.355-7.1914-2.3281-1.2969-3.6484-4.1289-3.7188-7.9805-0.15625-8.5547 5.832-19.168 13.352-23.66 2.1367-1.2773 4.2148-1.9258 6.0508-1.9258 1.332 0 2.5391 0.33984 3.5547 1.0234 0.035157 0.023438 0.070313 0.042969 0.10547 0.0625 0.41797 0.23438 5.7852 3.3359 10.164 5.8711-1.582 0.29688-3.25 0.9375-4.9609 1.957-7.9297 4.7383-14.242 15.941-14.078 24.973zm33.566 20.293c-2.0898-0.52734-5.0977-1.5742-6.3828-2.0508-0.03125-0.011719-0.0625-0.023437-0.097656-0.03125-0.066406-0.015625-0.14062-0.035156-0.21094-0.054687 0.09375-0.36328 0.21484-0.80859 0.28125-0.96875 0.20312-0.49219 0.36328-0.88281 0.97656-1.2227 0.75781-0.41797 1.7383-0.32031 2.2656-0.26953 1.25 0.12891 3.2539 0.89062 3.4609 1.6836 0.25 0.95312-0.0625 2.1953-0.29687 2.9141zm33-8.3633 0.046875 0.019531v-0.003906c0.93359 0.30078 2.4766 0.86719 3 1.2461 0.23438 0.16797 0.42969 0.33594 0.59375 0.50781-0.37109 1.3438-1.4688 2.3672-2.8438 2.6602-2.0547-0.92969-4.7773-1.8203-4.9453-1.875l-7.0938-1.9961-6.9648-4.5742-0.55078 0.83594 7.0273 4.6172c0.042969 0.027344 0.089844 0.050781 0.14062 0.0625l7.1484 2.0117c0.046874 0.015625 4.6172 1.5117 6.2656 2.582-0.28906 1.8203-1.6367 3.2773-3.4062 3.6953-1.0898-0.082032-3.4844-0.34766-3.5117-0.34766-0.13672-0.015626-0.26953 0.007812-0.39844 0.046874-0.34766-0.53906-0.83203-1.0039-1.4688-1.3516-1.6133-0.88281-8.293-2.4766-9.1133-2.668l-8.0156-4.6562-0.50391 0.86328 8.0781 4.6914c0.042969 0.023437 0.089843 0.042969 0.13672 0.054687 2.543 0.59766 7.6836 1.9062 8.9375 2.5898 0.47656 0.25781 0.83594 0.60156 1.0938 0.99609-0.33594 2.1055-2.0938 3.7227-4.2734 3.8086 0.027344 0.023437 0.058594 0.042968 0.089844 0.066406-2.1055-0.32422-6.7617-1.2109-9.8438-1.8164l-6.1602-2.2773-2.25-0.98047c0.72266-1.1172 1.2461-2.5195 1.2109-3.4297-0.085937-2.2148-2.9102-5.3125-3.9297-6.1875-1.4336-1.2305-4.9766-2.5625-6.0391-2.9453l-2.4375-2.9375c0.99219-1.2188 2.2305-3.1211 2.5156-5.3164 0.38281-2.9414-1.5352-4.75-1.6172-4.8242l-0.67969 0.73438c0.015625 0.015625 1.6211 1.5273 1.3047 3.9648-0.38672 2.9766-2.8477 5.4766-3.3906 6l-0.16016 0.13281 3.1016 3.7383c0.11719 0.14063 0.26953 0.24609 0.44141 0.30469 1.1953 0.41797 4.5469 1.7109 5.6602 2.668 1.2422 1.0703 3.1875 3.5898 3.2344 4.75 0.027344 0.69531-0.77344 2.2695-1.3945 2.9258-0.066406 0.046875-0.13672 0.097656-0.19141 0.16016-0.015625 0.019532-0.027344 0.027344-0.042969 0.042969-0.046875 0.03125-0.09375 0.070313-0.13281 0.082031-0.19141-0.011718-0.42578-0.039062-0.69531-0.089844 0.26562-0.83984 0.58594-2.2305 0.28516-3.3867-0.39844-1.5234-3.1406-2.3047-4.3281-2.4258-0.58984-0.058593-1.8242-0.18359-2.8516 0.38672-0.92188 0.51172-1.1875 1.1523-1.4297 1.7422-0.09375 0.22656-0.23438 0.75781-0.3125 1.0703-2.0156-0.53906-4.5273-1.2578-5.1094-1.5547-0.91016-0.53125-5.4141-6.0469-7.3398-8.4023-0.46484-0.56641-0.86328-1.0586-1.1719-1.4258-1.7383-2.1055-3.6836-6.2305-4.1562-8.8281-0.34375-1.8906-1.0898-8.4414 3.8438-13.426 5.1484-5.1953 8.3359-5.3945 8.3516-5.3945 0.039062 0 0.082031-0.003906 0.12109-0.007812 0.019531-0.003907 0.57422-0.0625 1.5742-0.042969l-0.027343 9.6992c0 0.35938 0.19141 0.69141 0.5 0.86719l26.188 15.121c0.15625 0.089844 0.32812 0.13281 0.5 0.13281s0.34766-0.046874 0.50391-0.13672l0.82031-0.47656 7.2891 4.5469 8.6719 3.3164c0.011719 0.003907 0.019531 0.011719 0.027344 0.015626 0.023437 0.007812 0.050781 0.015624 0.074219 0.023437zm-6.2461-7.3906c0.074219 0.046875 0.15234 0.085938 0.23438 0.11328 0.035156 0.011718 3.4023 1.1289 5.1328 2.4219 0.36719 0.27344 0.60937 0.53516 0.77734 0.77344-0.5 1.0078-1.4336 1.7461-2.5625 1.9961l-5.6641-2.1602-6.7578-4.2227 3.8008-2.2109z"/>
 <path d="m70.848 20.945-0.011718 3.5391c0 0.10156 0.03125 0.20312 0.089843 0.28516l4.0508 5.8711c0.027344 0.039063 0.066407 0.0625 0.10156 0.089844 0.019531 0.019531 0.035156 0.042969 0.058594 0.058593 0.003906 0.003907 0.007812 0 0.011719 0.003907 0.070312 0.039062 0.15234 0.0625 0.23437 0.0625h0.003907c0.085937 0 0.17188-0.023438 0.25-0.066407l4.4023-2.5586c0.15234-0.089844 0.24609-0.25391 0.25-0.42969l0.019532-7.0664c0-0.046875-0.023438-0.085937-0.035156-0.13281-0.011719-0.039062-0.011719-0.082031-0.03125-0.11719-0.042969-0.074219-0.10547-0.13672-0.18359-0.18359l-4.0625-2.3438c-0.15625-0.089843-0.34766-0.089843-0.50391 0l-4.4023 2.5586c-0.078125 0.046875-0.14062 0.10938-0.18359 0.18359-0.015625 0.027343-0.015625 0.058593-0.023438 0.089843-0.019531 0.050782-0.042968 0.10156-0.042968 0.16016zm0.99609 0.86719 3.0625 1.7695-0.015625 5.1797-3.0547-4.4297zm6.9688-1.0781-1.1797 0.68359-2.2266 1.293-3.0625-1.7695 3.4062-1.9805 3.0625 1.7695z"/>

  </g></svg>